<svg xmlns="http://www.w3.org/2000/svg" xmlns:xlink="http://www.w3.org/1999/xlink" viewBox="0 0 1936 1616">
  <title>table_1</title>
  <g id="frame" style="isolation: isolate">
    <path d="M1690,512,574,423l-1,3q-.5,71-1,142c.87,2.6,7.39,13.29,10,15l296,26,1,3v776c-8.76,16.34-51.42,44.74-68,56l-21,20L653,1574l-79,66c-16.36,5-38.76-5.26-50-8-34.2-8.32-68.47-6.1-101-14L44,1565V431c0-26.33-8.78-81.42,0-101l1240,98,72,4,264,22c31.56,5.93,104.78-1,126,12,.09,122.45-2,250.55-2,376-17,2.12-37.37.63-54-3-8.37-23.91-2-79.52-2-109,0-42.81-4-75.6-4-120V570C1687,553.74,1689.36,526.78,1690,512Z" transform="translate(-32 -192)" fill="none" fill-rule="evenodd"/>
    <path d="M92,392V540l346,31v1h-6c-.19,13.54-.32,29.47,2,40-16,9.33-72.33-.16-92-4L170,594c-23.84-4.62-62.16-10.21-82-4,0,310-2.67,625.35,2,932,65.44,2.78,133.11,11.44,196,24l86,10c21.16,4.22,45.95,9.26,70,10v6c30.85,0,54,9.25,84,6V803c0-78.25,1.69-165.8,0-235q-.5-70-1-140l-3-1c-32.91-12.92-93.05-3.56-132-11-48.13-9.19-99.71-2.41-150-12C194,395.24,141.65,392.17,92,392Z" transform="translate(-32 -192)" fill="none" fill-rule="evenodd"/>
  </g>
  <g id="doors" style="isolation: isolate">
    <path d="M93,392c41.37-.38,85.06,2.77,123,10,41.41,7.89,84.74,2.53,124,10,59.42,11.31,126.1,3.94,184,15l1,3V576l-3,1c-12.49,5-105.27-7.76-122-11L91,539Q92,465.5,93,392Z" transform="translate(-32 -192)" fill="none" fill-rule="evenodd"/>
    <path d="M1690,512c-1.66,42.56-14,123.37-3,168l-3,2c-30.81-.2-70.72-3.56-99-10-31.86-7.26-65.36-.13-94-8l-46-2-110-12-46-2-202-20-46-2c-33.54-8.31-76.51-5-110-12-12.4-2.58-46.36-5-52,0-18.17-9.74-51.44-1.94-72-11H785c-14.33-4.75-33.89,1.35-50-4-12.38-4.11-29.5.82-44-4-25.09-8.35-83.15-9.82-114-10-.18-9.64-2.86-9.44-5-14V424l2-1Z" transform="translate(-32 -192)" fill="none" fill-rule="evenodd"/>
    <path d="M441,1573v-6c-42.6.18-88.74-9.58-128-18L96,1519c-8.61-13.75-4-49.21-4-70V1277q-.5-346-1-692l102,10c20.85,4.48,43.88-.12,62,6l92,6c27.28,8.53,68.71,7.48,94,5,2.74,2.89,1.24,3.48,6,5,5.46-6.52,68-.63,79,3-6.23,28.2-2,68.19-2,100V934c0,216.14-3.12,445.16,5,653-3.15,1.93-3,3-5,6h-1c-1.3-5.61-3.58-5.86-6-10C489.56,1582.88,469.32,1573.23,441,1573Z" transform="translate(-32 -192)" fill="none" fill-rule="evenodd"/>
  </g>
  <g id="right-leg" style="isolation: isolate">
    <path d="M1744,844c0,9.27,2.38,13.17,4,18v846c11.72-4.24,56.62-70,67-84l56-72c7.93-10.67,21.26-20.7,26-34,5-13.94,3-35.75,3-54V1354q1-174,2-348V720c2.33-6.89,42.5-41.84,51-43l3,3v756c0,30.94,3.24,65.27-4,91-9.89,35.16-43.23,60-62,88-26.09,39-58.24,73.52-84,112-16.52,24.67-33.94,52.56-55,73l-54-7c-11.57-16.14-9-46.67-9-75V1552q.49-356,1-712Z" transform="translate(-32 -192)" fill="none" fill-rule="evenodd"/>
  </g>
  <g id="top" style="isolation: isolate">
    <path d="M1956,676l-6,1c-16.71,7.43-29.84,26.2-43,38-32.15,28.84-64.4,62.62-100,87l-62,58h-1V573c0-26.56,8.85-92.8-1-110L539,368l-72-4L183,340c-39.23-7.95-102.15,2.49-135-11v-1L390,200l363,26,169,10c33.71,7.14,72.81.92,109,8,37.23,7.29,78.5.27,118,8,81,15.85,175.29,4.22,256,20,28.46,5.57,58.14.94,84,6l60,2,294,22c20.51,4.35,108.26.73,116,11q-.49,51.5-1,103C1958,502.36,1956.31,592.84,1956,676Z" transform="translate(-32 -192)" fill="none" fill-rule="evenodd"/>
  </g>
  <g id="Layer_4_Image" data-name="Layer 4 Image" opacity="0.35">
    <image id="Layer_4_Image-2" data-name="Layer 4 Image" width="1936" height="1616" xlink:href="table_11.png"/>
  </g>
</svg>
